<?xml version="1.0" encoding="iso-8859-1"?>
<!-- Uploaded to: SVG Repo, www.svgrepo.com, Generator: SVG Repo Mixer Tools -->
<!DOCTYPE svg PUBLIC "-//W3C//DTD SVG 1.1//EN" "http://www.w3.org/Graphics/SVG/1.1/DTD/svg11.dtd">
<svg fill="#000000" height="800px" width="800px" version="1.1" id="Capa_1" xmlns="http://www.w3.org/2000/svg" xmlns:xlink="http://www.w3.org/1999/xlink" 
	 viewBox="0 0 211.667 211.667" xml:space="preserve">
<path d="M211.667,98.551c0,2.209-1.791,4-4,4H201v26.448c0,13.403-7.085,25.178-17.702,31.792l7.999,14.878
	c1.046,1.946,0.317,4.371-1.629,5.418c-0.603,0.323-1.251,0.478-1.891,0.478c-1.425,0-2.804-0.764-3.526-2.106l-8.164-15.186
	c-3.918,1.395-8.131,2.161-12.522,2.161H48.102c-3.755,0-7.38-0.562-10.802-1.595l-7.86,14.62c-0.722,1.343-2.102,2.106-3.526,2.106
	c-0.64,0-1.288-0.154-1.891-0.478c-1.946-1.047-2.675-3.472-1.629-5.418l7.512-13.972c-11.465-6.406-19.239-18.659-19.239-32.699
	v-26.448H4c-2.209,0-4-1.791-4-4s1.791-4,4-4h10.667H197h10.667C209.876,94.551,211.667,96.342,211.667,98.551z M4,60.814h43.083
	c3.584,0,6.5,2.916,6.5,6.5v8.5c0,2.209,1.791,4,4,4s4-1.791,4-4v-8.5c0-7.995-6.505-14.5-14.5-14.5H4c-2.209,0-4,1.791-4,4
	S1.791,60.814,4,60.814z M9.25,48.602h6.833c2.209,0,4-1.791,4-4v-10.5c0-2.209-1.791-4-4-4H9.25c-5.101,0-9.25,4.149-9.25,9.25
	S4.149,48.602,9.25,48.602z"/>
</svg>